HIERARCHY
ROOT Root
{
  OFFSET 0.0 0.0 0.0
  CHANNELS 6 Xposition Yposition Zposition Zrotation Yrotation Xrotation
  JOINT Hips
  {
    OFFSET 0.0 100.0 0.0
    CHANNELS 6 Xposition Yposition Zposition Zrotation Yrotation Xrotation
    JOINT Spine1
    {
      OFFSET -0.013727 5.003763 -0.053727
      CHANNELS 3 Zrotation Yrotation Xrotation
      JOINT Spine2
      {
        OFFSET -0.0 7.125301 -0.029825
        CHANNELS 3 Zrotation Yrotation Xrotation
        JOINT Chest
        {
          OFFSET -1e-06 7.550063 -0.815971
          CHANNELS 3 Zrotation Yrotation Xrotation
          JOINT Neck1
          {
            OFFSET -0.181677 26.311295 -0.553348
            CHANNELS 3 Zrotation Yrotation Xrotation
            JOINT Neck2
            {
              OFFSET -3e-06 7.709397 2.302585
              CHANNELS 3 Zrotation Yrotation Xrotation
              JOINT Head
              {
                OFFSET -5e-06 6.128916 1.953709
                CHANNELS 3 Zrotation Yrotation Xrotation
                JOINT HeadEnd
                {
                  OFFSET 0.003598 16.065403 -1.835379
                  CHANNELS 3 Zrotation Yrotation Xrotation
                }
                JOINT Jaw
                {
                  OFFSET 0.002637 0.475592 3.094941
                  CHANNELS 3 Zrotation Yrotation Xrotation
                }
                JOINT LeftEye
                {
                  OFFSET 3.206381 5.380205 7.586883
                  CHANNELS 3 Zrotation Yrotation Xrotation
                }
                JOINT RightEye
                {
                  OFFSET -3.22244 5.361869 7.558234
                  CHANNELS 3 Zrotation Yrotation Xrotation
                }
              }
            }
          }
          JOINT LeftShoulder
          {
            OFFSET 1.621652 23.237164 5.113413
            CHANNELS 3 Zrotation Yrotation Xrotation
            JOINT LeftArm
            {
              OFFSET 14.919846 2e-06 -5.502326
              CHANNELS 3 Zrotation Yrotation Xrotation
              JOINT LeftForeArm
              {
                OFFSET 28.739307 0.0 -0.002588
                CHANNELS 3 Zrotation Yrotation Xrotation
                JOINT LeftHand
                {
                  OFFSET 27.093981 -1e-06 0.002609
                  CHANNELS 3 Zrotation Yrotation Xrotation
                  JOINT LeftHandThumb1
                  {
                    OFFSET 2.276482 -1.392045 3.191413
                    CHANNELS 3 Zrotation Yrotation Xrotation
                    JOINT LeftHandThumb2
                    {
                      OFFSET 4.012836 -1.828127 1.641654
                      CHANNELS 3 Zrotation Yrotation Xrotation
                      JOINT LeftHandThumb3
                      {
                        OFFSET 2.798515 0.0 -3e-06
                        CHANNELS 3 Zrotation Yrotation Xrotation
                        JOINT LeftHandThumbEnd
                        {
                          OFFSET 3.180793 -4e-06 4e-06
                          CHANNELS 3 Zrotation Yrotation Xrotation
                        }
                      }
                    }
                  }
                  JOINT LeftHandIndex1
                  {
                    OFFSET 3.247555 -0.531998 2.296169
                    CHANNELS 3 Zrotation Yrotation Xrotation
                    JOINT LeftHandIndex2
                    {
                      OFFSET 6.364578 0.01206 0.1786
                      CHANNELS 3 Zrotation Yrotation Xrotation
                      JOINT LeftHandIndex3
                      {
                        OFFSET 3.662364 0.0 0.0
                        CHANNELS 3 Zrotation Yrotation Xrotation
                        JOINT LeftHandIndex4
                        {
                          OFFSET 2.329242 4e-06 4e-06
                          CHANNELS 3 Zrotation Yrotation Xrotation
                          JOINT LeftHandIndexEnd
                          {
                            OFFSET 2.759615 -0.180537 -0.113024
                            CHANNELS 3 Zrotation Yrotation Xrotation
                          }
                        }
                      }
                    }
                  }
                  JOINT LeftHandMiddle1
                  {
                    OFFSET 3.163495 0.240981 1.000332
                    CHANNELS 3 Zrotation Yrotation Xrotation
                    JOINT LeftHandMiddle2
                    {
                      OFFSET 6.19078 -0.259278 -1.002548
                      CHANNELS 3 Zrotation Yrotation Xrotation
                      JOINT LeftHandMiddle3
                      {
                        OFFSET 4.35652 -4e-06 -1e-06
                        CHANNELS 3 Zrotation Yrotation Xrotation
                        JOINT LeftHandMiddle4
                        {
                          OFFSET 2.996877 -8e-06 0.0
                          CHANNELS 3 Zrotation Yrotation Xrotation
                          JOINT LeftHandMiddleEnd
                          {
                            OFFSET 2.304287 -0.294569 -0.031741
                            CHANNELS 3 Zrotation Yrotation Xrotation
                          }
                        }
                      }
                    }
                  }
                  JOINT LeftHandRing1
                  {
                    OFFSET 2.882643 -0.053652 -0.322543
                    CHANNELS 3 Zrotation Yrotation Xrotation
                    JOINT LeftHandRing2
                    {
                      OFFSET 5.854541 -0.486202 -1.373841
                      CHANNELS 3 Zrotation Yrotation Xrotation
                      JOINT LeftHandRing3
                      {
                        OFFSET 4.350578 0.0 3e-06
                        CHANNELS 3 Zrotation Yrotation Xrotation
                        JOINT LeftHandRing4
                        {
                          OFFSET 2.651321 7e-06 2e-06
                          CHANNELS 3 Zrotation Yrotation Xrotation
                          JOINT LeftHandRingEnd
                          {
                            OFFSET 1.936105 0.077687 -7.1e-05
                            CHANNELS 3 Zrotation Yrotation Xrotation
                          }
                        }
                      }
                    }
                  }
                  JOINT LeftHandPinky1
                  {
                    OFFSET 2.8655 -0.310005 -1.600378
                    CHANNELS 3 Zrotation Yrotation Xrotation
                    JOINT LeftHandPinky2
                    {
                      OFFSET 5.087849 -1.331141 -1.77123
                      CHANNELS 3 Zrotation Yrotation Xrotation
                      JOINT LeftHandPinky3
                      {
                        OFFSET 3.070974 4e-06 0.0
                        CHANNELS 3 Zrotation Yrotation Xrotation
                        JOINT LeftHandPinky4
                        {
                          OFFSET 1.549672 0.0 1e-06
                          CHANNELS 3 Zrotation Yrotation Xrotation
                          JOINT LeftHandPinkyEnd
                          {
                            OFFSET 1.944893 -0.157802 0.057219
                            CHANNELS 3 Zrotation Yrotation Xrotation
                          }
                        }
                      }
                    }
                  }
                }
              }
            }
          }
          JOINT RightShoulder
          {
            OFFSET -1.380118 23.180309 5.214158
            CHANNELS 3 Zrotation Yrotation Xrotation
            JOINT RightArm
            {
              OFFSET -15.037196 1.2e-05 -5.545604
              CHANNELS 3 Zrotation Yrotation Xrotation
              JOINT RightForeArm
              {
                OFFSET -28.736639 2e-06 -0.002597
                CHANNELS 3 Zrotation Yrotation Xrotation
                JOINT RightHand
                {
                  OFFSET -27.133619 -0.0 0.002613
                  CHANNELS 3 Zrotation Yrotation Xrotation
                  JOINT RightHandThumb1
                  {
                    OFFSET -2.274032 -1.383988 3.163127
                    CHANNELS 3 Zrotation Yrotation Xrotation
                    JOINT RightHandThumb2
                    {
                      OFFSET -4.011429 -1.827466 1.640914
                      CHANNELS 3 Zrotation Yrotation Xrotation
                      JOINT RightHandThumb3
                      {
                        OFFSET -2.794935 -4e-06 -3e-06
                        CHANNELS 3 Zrotation Yrotation Xrotation
                        JOINT RightHandThumbEnd
                        {
                          OFFSET -3.183852 4e-06 1e-06
                          CHANNELS 3 Zrotation Yrotation Xrotation
                        }
                      }
                    }
                  }
                  JOINT RightHandIndex1
                  {
                    OFFSET -3.253266 -0.520057 2.282866
                    CHANNELS 3 Zrotation Yrotation Xrotation
                    JOINT RightHandIndex2
                    {
                      OFFSET -6.341917 0.012471 0.178266
                      CHANNELS 3 Zrotation Yrotation Xrotation
                      JOINT RightHandIndex3
                      {
                        OFFSET -3.654871 -8e-06 -0.0
                        CHANNELS 3 Zrotation Yrotation Xrotation
                        JOINT RightHandIndex4
                        {
                          OFFSET -2.327586 0.0 1e-06
                          CHANNELS 3 Zrotation Yrotation Xrotation
                          JOINT RightHandIndexEnd
                          {
                            OFFSET -2.76179 -0.180656 -0.113078
                            CHANNELS 3 Zrotation Yrotation Xrotation
                          }
                        }
                      }
                    }
                  }
                  JOINT RightHandMiddle1
                  {
                    OFFSET -3.168106 0.246593 1.00103
                    CHANNELS 3 Zrotation Yrotation Xrotation
                    JOINT RightHandMiddle2
                    {
                      OFFSET -6.180828 -0.258836 -1.000895
                      CHANNELS 3 Zrotation Yrotation Xrotation
                      JOINT RightHandMiddle3
                      {
                        OFFSET -4.348901 0.0 -0.0
                        CHANNELS 3 Zrotation Yrotation Xrotation
                        JOINT RightHandMiddle4
                        {
                          OFFSET -3.00024 -4e-06 -2e-06
                          CHANNELS 3 Zrotation Yrotation Xrotation
                          JOINT RightHandMiddleEnd
                          {
                            OFFSET -2.30252 -0.29437 -0.031706
                            CHANNELS 3 Zrotation Yrotation Xrotation
                          }
                        }
                      }
                    }
                  }
                  JOINT RightHandRing1
                  {
                    OFFSET -2.88569 -0.067952 -0.308858
                    CHANNELS 3 Zrotation Yrotation Xrotation
                    JOINT RightHandRing2
                    {
                      OFFSET -5.854198 -0.48613 -1.373731
                      CHANNELS 3 Zrotation Yrotation Xrotation
                      JOINT RightHandRing3
                      {
                        OFFSET -4.33881 -4e-06 -0.0
                        CHANNELS 3 Zrotation Yrotation Xrotation
                        JOINT RightHandRing4
                        {
                          OFFSET -2.654903 -4e-06 4e-06
                          CHANNELS 3 Zrotation Yrotation Xrotation
                          JOINT RightHandRingEnd
                          {
                            OFFSET -1.933568 0.077527 -5.2e-05
                            CHANNELS 3 Zrotation Yrotation Xrotation
                          }
                        }
                      }
                    }
                  }
                  JOINT RightHandPinky1
                  {
                    OFFSET -2.866425 -0.342796 -1.584145
                    CHANNELS 3 Zrotation Yrotation Xrotation
                    JOINT RightHandPinky2
                    {
                      OFFSET -5.091371 -1.332055 -1.772385
                      CHANNELS 3 Zrotation Yrotation Xrotation
                      JOINT RightHandPinky3
                      {
                        OFFSET -3.062664 -4e-06 1e-06
                        CHANNELS 3 Zrotation Yrotation Xrotation
                        JOINT RightHandPinky4
                        {
                          OFFSET -1.546529 4e-06 -2e-06
                          CHANNELS 3 Zrotation Yrotation Xrotation
                          JOINT RightHandPinkyEnd
                          {
                            OFFSET -1.945119 -0.157718 0.057211
                            CHANNELS 3 Zrotation Yrotation Xrotation
                          }
                        }
                      }
                    }
                  }
                }
              }
            }
          }
        }
      }
    }
    JOINT LeftLeg
    {
      OFFSET 10.043214 -8.434526 2.595655
      CHANNELS 3 Zrotation Yrotation Xrotation
      JOINT LeftShin
      {
        OFFSET -1e-06 -43.221752 -0.802913
        CHANNELS 3 Zrotation Yrotation Xrotation
        JOINT LeftFoot
        {
          OFFSET 1e-06 -42.155094 -3.481523
          CHANNELS 3 Zrotation Yrotation Xrotation
          JOINT LeftToeBase
          {
            OFFSET 0.0 -5.059472 13.231529
            CHANNELS 3 Zrotation Yrotation Xrotation
            JOINT LeftToeEnd
            {
              OFFSET -0.009607 -1.647619 6.513017
              CHANNELS 3 Zrotation Yrotation Xrotation
            }
          }
        }
      }
    }
    JOINT RightLeg
    {
      OFFSET -10.047278 -8.29526 2.620317
      CHANNELS 3 Zrotation Yrotation Xrotation
      JOINT RightShin
      {
        OFFSET 1e-06 -43.362206 -0.805556
        CHANNELS 3 Zrotation Yrotation Xrotation
        JOINT RightFoot
        {
          OFFSET 2e-06 -42.117393 -3.478398
          CHANNELS 3 Zrotation Yrotation Xrotation
          JOINT RightToeBase
          {
            OFFSET -0.0 -5.079609 13.284196
            CHANNELS 3 Zrotation Yrotation Xrotation
            JOINT RightToeEnd
            {
              OFFSET 0.009532 -1.634378 6.460591
              CHANNELS 3 Zrotation Yrotation Xrotation
            }
          }
        }
      }
    }
  }
}
MOTION
Frames: 4
Frame Time: 0.03333333333333333
0.0 0.0 0.0 0.0 -0.0 0.0 -2.533462 95.708557 3.095411 -1.279831 -0.912092 4.338571 -1.241474 -0.494586 0.023454 -0.391435 -2.816278 -4.974064 1.868244 -4.035671 12.280162 1.06598 2.210984 0.461349 -0.594011 1.367405 -3.546236 2.250133 -0.114632 -16.156801 7.7e-05 -2.3e-05 6e-06 0.031932 0.089116 0.006031 0.660237 -3.65159 -10.468547 -0.591265 3.842903 -10.475507 -15.481549 -11.398126 16.751577 -49.327583 -15.3474 5.609833 0.507965 -34.736378 -0.35844 -6.551497 -2.435236 4.297457 -5.882113 9.861295 0.702592 -10.936882 -0.360574 7.156211 0.0 8.774833 -1e-06 -16.653654 18.679119 6.05281 -1.844035 2.498507 -2.50728 -10.163611 4.678951 4.621112 -20.976046 -2e-06 0.0 -21.226311 2.4517 -3.594005 1e-06 -5e-06 -0.0 -1.362682 2.240798 -0.746327 -21.334936 0.584912 3.008326 -13.821229 -2e-06 2e-06 -23.887196 -0.249078 -0.839485 -61.600636 2.292114 -1.046353 -0.294025 1.679689 0.833257 -14.218224 0.093215 1.300581 -34.212086 -0.287564 0.967167 -20.033239 0.964536 1.212842 1e-06 1e-06 1e-06 -3.440393 0.788233 0.501658 -15.928203 -3.167311 2.999709 -6.338833 -0.0 -1e-06 -18.123466 3.648188 -4.905676 -4e-06 1e-06 0.0 22.265266 7.157322 17.352007 50.922276 4.548129 9.199513 -0.357957 28.319445 -0.080343 10.434986 1.274714 13.468952 2.243543 -5.255041 -3.180159 14.282902 -0.826595 6.952505 -2e-06 -12.690614 -3e-06 16.68647 -18.187529 2.035293 1.665668 -1.955923 -2.8783 4.727803 -4.170591 4.993927 11.020536 3e-06 -1e-06 12.109062 -3.735719 -2.866786 -0.0 1e-06 -0.0 1.291987 -1.928551 -1.498091 14.800139 0.567468 3.865607 14.242584 -1.341737 -6.660664 19.631985 0.143927 -0.648247 49.857876 -0.274675 -6.521214 0.353029 -1.511151 -0.03194 20.222805 3.684313 2.316629 18.787287 7e-06 -2e-06 10.75164 -0.479867 1.397906 0.0 3e-06 -1e-06 3.273809 0.305947 -0.580112 21.486832 11.830381 2.266135 8.162935 3e-06 -2e-06 18.399099 -3.798985 -4.940581 4e-06 1e-06 -2e-06 2.748661 -1.998975 10.945395 -0.030081 -0.181345 35.637436 -5.430362 -4.370589 8.059975 2.2844 -1.666365 -21.872677 -0.0 0.0 4e-06 4.617772 -7.841126 -33.992657 0.087915 0.007458 26.44276 -3.179214 -7.24663 2.839858 -1.366252 1.025288 -2.031787 0.0 0.0 -1e-06 
0.0 0.0 0.0 0.0 -0.0 0.0 -3.188958 96.611145 5.369287 -2.504975 -1.338474 3.558248 -0.489112 -0.274703 0.544488 -0.272358 -2.354613 -4.852012 2.246982 -3.933675 12.044297 0.895632 2.19607 0.504416 -0.497573 1.297369 -3.608517 2.237397 0.163559 -15.777534 7.7e-05 -2.3e-05 7e-06 0.028417 0.094176 -0.025656 0.672245 -3.634314 -10.456585 -0.611575 3.830914 -10.461425 -15.299567 -10.987024 16.65736 -50.571285 -14.545628 6.996102 0.375073 -32.977337 -0.297654 -6.961057 -2.249974 5.321792 -5.88211 9.86129 0.702588 -10.936873 -0.360573 7.156208 -1e-06 8.774827 0.0 -16.714666 18.334482 5.907217 -1.844032 2.498506 -2.507279 -10.163602 4.678947 4.621109 -20.976027 -0.0 1e-06 -21.226294 2.4517 -3.594004 1e-06 -4e-06 -1e-06 -1.362682 2.240799 -0.746324 -21.334921 0.584914 3.008322 -13.821218 -2e-06 1e-06 -23.887177 -0.249076 -0.839485 -61.141541 2.304585 -1.031486 -0.294025 1.679688 0.833257 -14.218212 0.093218 1.30058 -34.212055 -0.287559 0.967165 -20.033218 0.964536 1.212839 1e-06 -0.0 0.0 -3.440388 0.788234 0.501654 -15.928189 -3.167309 2.999706 -6.338828 -0.0 0.0 -18.123453 3.648185 -4.905674 -3e-06 0.0 -1e-06 21.279694 8.030059 17.591965 51.458229 6.351576 9.72781 -0.300177 28.51944 0.003082 10.599113 1.522401 12.092289 2.243543 -5.255038 -3.180157 14.282896 -0.826595 6.952503 -3e-06 -12.690609 2e-06 16.556795 -18.227295 2.093491 1.665667 -1.955922 -2.878299 4.7278 -4.170589 4.993925 11.02053 2e-06 -3e-06 12.109056 -3.735717 -2.866787 -1e-06 0.0 0.0 1.291986 -1.92855 -1.498091 14.800132 0.567468 3.865604 14.242579 -1.341739 -6.66066 19.631973 0.143925 -0.648247 50.027721 -0.330218 -6.531304 0.353029 -1.511151 -0.031939 20.222797 3.684309 2.316625 18.787279 6e-06 -4e-06 10.751633 -0.479867 1.397904 -0.0 1e-06 1e-06 3.273808 0.305946 -0.580112 21.48682 11.830379 2.266131 8.16293 2e-06 -1e-06 18.39909 -3.798984 -4.940579 2e-06 1e-06 0.0 4.863269 -0.946233 4.927671 0.032797 -0.36012 49.087166 -7.62928 -2.544801 12.949721 2.047353 -1.840776 -10.461309 0.0 -0.0 3e-06 5.859261 -6.970901 -29.669916 0.087688 -0.043054 23.025154 -3.332109 -7.47387 2.77943 -1.396534 1.021024 -1.81094 0.0 0.0 -1e-06 
0.0 0.0 0.0 0.0 -0.0 0.0 -4.274983 97.418953 9.489049 -3.333157 -1.812608 2.889091 0.20174 -0.114173 1.047777 -0.23026 -1.858815 -4.691858 2.183174 -3.63596 11.807487 0.909253 2.12359 0.57189 -0.366417 1.32623 -3.594836 2.292498 0.056048 -15.838647 7.7e-05 -2.3e-05 6e-06 0.019597 0.055336 -0.019899 0.671263 -3.671099 -10.471351 -0.629725 3.787559 -10.459803 -15.300623 -10.493565 16.588213 -51.114197 -13.776089 8.966029 0.450459 -31.819069 -0.206914 -7.633911 -2.113072 5.998319 -5.882113 9.861293 0.702592 -10.936883 -0.360573 7.156213 1e-06 8.774831 0.0 -16.723431 18.272972 5.844111 -1.844035 2.498507 -2.50728 -10.163611 4.678948 4.621114 -20.976046 -4e-06 3e-06 -21.226309 2.451699 -3.594002 0.0 -7e-06 -1e-06 -1.362684 2.2408 -0.746323 -21.334938 0.584912 3.008324 -13.821233 -2e-06 1e-06 -23.887196 -0.249079 -0.839482 -60.910412 2.455049 -1.111351 -0.294024 1.679688 0.833256 -14.218225 0.093215 1.300581 -34.212093 -0.287565 0.96717 -20.033236 0.964536 1.212844 1e-06 1e-06 1e-06 -3.440392 0.788233 0.501656 -15.928203 -3.167312 2.999709 -6.338833 1e-06 1e-06 -18.123466 3.648186 -4.905674 -3e-06 2e-06 0.0 20.274637 8.904735 17.60474 51.878891 8.284228 10.262948 -0.106535 29.555208 0.035727 10.251554 1.812299 10.641223 2.243543 -5.255039 -3.18016 14.282896 -0.826594 6.952504 -4e-06 -12.690611 1e-06 16.485565 -18.159122 2.182621 1.665667 -1.955922 -2.878301 4.7278 -4.17059 4.993926 11.020531 4e-06 -0.0 12.109058 -3.735717 -2.866786 -1e-06 0.0 -0.0 1.291986 -1.92855 -1.498092 14.800134 0.567469 3.865607 14.242579 -1.341734 -6.660662 19.631973 0.143928 -0.648245 50.145069 -0.440634 -6.590189 0.353029 -1.511152 -0.031941 20.222801 3.684312 2.316631 18.787283 5e-06 -2e-06 10.751634 -0.479868 1.397906 0.0 2e-06 -0.0 3.273808 0.305947 -0.580112 21.486824 11.830382 2.266131 8.16293 3e-06 -2e-06 18.39909 -3.798986 -4.940577 2e-06 0.0 -1e-06 6.409155 0.805544 -1.798982 0.030581 -0.395261 60.22908 -6.997395 -0.320245 11.795542 1.983403 -1.956711 -5.312168 0.0 0.0 3e-06 7.007229 -6.781325 -25.210096 0.03538 -0.105861 21.503487 -3.263244 -7.32447 0.482999 -1.408402 1.026775 -1.58657 -0.0 0.0 -1e-06 
0.0 0.0 0.0 0.0 -0.0 0.0 -5.241784 98.267868 13.552448 -3.437016 -2.465746 2.235273 0.591046 0.068824 1.36014 -0.272471 -1.349776 -4.545131 1.651561 -3.161257 11.7643 1.055021 2.192693 0.699287 -0.364211 1.284339 -3.555461 2.35872 -0.183138 -15.843706 7.7e-05 -2.2e-05 6e-06 0.010887 0.019885 -0.011417 0.665014 -3.710007 -10.510196 -0.642173 3.754269 -10.494966 -15.654409 -9.706656 16.363735 -51.09631 -12.748379 10.037535 0.29443 -31.436083 -0.055053 -7.829577 -2.157929 6.579438 -5.882109 9.861292 0.702592 -10.93688 -0.360577 7.156211 2e-06 8.774833 -0.0 -16.63209 18.266432 5.799594 -1.844033 2.498506 -2.507279 -10.163605 4.678947 4.621112 -20.97604 -9e-06 3e-06 -21.226303 2.451694 -3.594002 0.0 -6e-06 -1e-06 -1.362682 2.2408 -0.746323 -21.334929 0.584905 3.008326 -13.821225 -7e-06 3e-06 -23.887186 -0.249084 -0.839479 -60.696102 2.621683 -1.215184 -0.294024 1.679689 0.833256 -14.21822 0.093212 1.300579 -34.212074 -0.28757 0.967174 -20.033232 0.964534 1.212849 1e-06 1e-06 1e-06 -3.440392 0.788234 0.501657 -15.928201 -3.167315 2.999709 -6.33883 -2e-06 1e-06 -18.123459 3.648182 -4.905674 -3e-06 -0.0 -1e-06 19.617115 9.793547 17.583845 51.863842 10.220355 10.337352 0.146861 30.967098 0.129513 9.295822 2.381998 9.936904 2.243544 -5.255041 -3.180159 14.282907 -0.826594 6.952506 -6e-06 -12.690619 1e-06 16.478979 -18.135485 2.266483 1.665668 -1.955922 -2.878302 4.727803 -4.170592 4.993929 11.020539 5e-06 -1e-06 12.109065 -3.735717 -2.866788 -0.0 0.0 -1e-06 1.291987 -1.928551 -1.49809 14.800146 0.567471 3.865609 14.242587 -1.341733 -6.660662 19.631994 0.143931 -0.648245 50.254742 -0.579158 -6.739809 0.353028 -1.511152 -0.031942 20.222815 3.684316 2.31663 18.787291 9e-06 -3e-06 10.751639 -0.479867 1.397908 -0.0 0.0 1e-06 3.273811 0.305948 -0.580112 21.486839 11.830391 2.266131 8.162936 4e-06 -1e-06 18.399103 -3.798985 -4.94058 4e-06 1e-06 -3e-06 6.763028 3.170867 -8.515469 -0.010527 -0.189111 66.849762 -5.137088 1.530698 7.60389 1.93817 -1.95318 -4.696574 -0.0 -0.0 3e-06 7.310388 -6.822225 -20.345795 0.007317 -0.138976 18.93722 -3.090955 -6.810104 -1.188483 -1.412536 1.046942 -1.453649 -0.0 0.0 -1e-06 
